<svg width="24" height="24" viewBox="0 0 24 24" fill="none" xmlns="http://www.w3.org/2000/svg">
<g clip-path="url(#clip0_1309_26)">
<path fill-rule="evenodd" clip-rule="evenodd" d="M1.20453 1.20962L0 2.41417L4.79291 7.20709L9.58581 12L4.79291 16.7929L0 21.5858L1.20453 22.7904C1.86702 23.4529 2.41181 23.995 2.41517 23.995C2.41853 23.995 4.57649 21.8393 7.21064 19.2046L12 14.4142L16.7894 19.2046C19.4235 21.8393 21.5815 23.995 21.5848 23.995C21.5882 23.995 22.133 23.4529 22.7955 22.7904L24 21.5858L19.2071 16.7929L14.4142 12L19.2071 7.20709L24 2.41416L22.7929 1.20709L21.5858 0L16.7929 4.79291L12 9.58582L7.2096 4.79544C4.57489 2.16072 2.41693 0.00505128 2.41413 0.00505128C2.41134 0.00505128 1.86702 0.547102 1.20453 1.20962Z" fill="currentColor"/>
</g>
<defs>
<clipPath id="clip0_1309_26">
<rect width="24" height="24" fill="none"/>
</clipPath>
</defs>
</svg>
