<svg width="24" height="24" viewBox="0 0 24 24" fill="none" xmlns="http://www.w3.org/2000/svg">
<path fill-rule="evenodd" clip-rule="evenodd" d="M6.17633 1.00641C4.79675 1.06984 3.48494 1.57611 2.40506 2.46186C2.16295 2.66044 1.82817 2.98452 1.64165 3.20086C1.2227 3.68679 0.914158 4.15586 0.64765 4.71198C0.272101 5.49563 0.0600976 6.32347 0.00728455 7.21248C-0.00242818 7.37593 -0.00242818 7.82693 0.00728455 7.99702C0.134286 10.2215 1.20386 12.336 3.5194 14.9403C3.89337 15.3609 4.20033 15.6885 4.70776 16.2085C5.89371 17.4238 7.0503 18.5148 9.71996 20.9361C10.0476 21.2333 10.6926 21.8192 11.1533 22.2382C11.614 22.6572 11.9936 23 11.9968 23C12.0151 23 14.7739 20.5047 15.889 19.4796C18.5146 17.0659 20.0165 15.5448 21.19 14.1111C22.9275 11.9881 23.808 10.1324 23.9736 8.24437C24.0135 7.7888 24.0079 7.26228 23.9585 6.82987C23.7664 5.14766 22.9477 3.60914 21.6674 2.52422C20.9461 1.91302 20.1041 1.46859 19.2012 1.22251C18.5773 1.05244 17.9408 0.981138 17.2546 1.00441C16.96 1.0144 16.794 1.02673 16.5568 1.05622C14.9465 1.25649 13.4491 2.00204 12.3037 3.17389C12.2202 3.25929 12.1179 3.36817 12.0764 3.41585C12.0349 3.46353 11.9987 3.50162 11.9961 3.50049C11.9934 3.49937 11.9508 3.45323 11.9014 3.39796C11.5989 3.05937 11.2106 2.70487 10.8395 2.42826C9.75594 1.62069 8.48284 1.13787 7.14002 1.02523C6.84854 1.00078 6.46263 0.993242 6.17633 1.00641Z" fill="currentColor"/>
</svg>
