<svg width="24" height="24" viewBox="0 0 24 24" fill="none" xmlns="http://www.w3.org/2000/svg">
<path fill-rule="evenodd" clip-rule="evenodd" d="M8.57147 0.663277L8.00443 1.32655L6.00222 1.32702L4 1.32748V2.66376V4.00004H12.0001H20.0001V2.66376V1.32748L17.9979 1.32702L15.9957 1.32655L15.4287 0.663277L14.8616 0H12.0001H9.1385L8.57147 0.663277ZM5.14081 13.4836C5.13953 17.9647 5.14156 21.6725 5.14534 21.7233C5.14911 21.774 5.16007 21.8631 5.1697 21.9211C5.34576 22.9827 6.19224 23.8186 7.25717 23.9824C7.37039 23.9999 7.41479 24 11.9957 24C17.0348 23.9999 16.6701 24.0035 16.9031 23.9513C17.0511 23.9181 17.1666 23.8822 17.3012 23.8276C18.227 23.452 18.8479 22.548 18.8599 21.5584C18.8609 21.4774 18.8607 17.7943 18.8595 13.3738L18.8573 5.33631H12.0002H5.14316L5.14081 13.4836Z" fill="currentColor"/>
</svg>
